<svg width="180" height="89" viewBox="0 0 180 89" fill="none" xmlns="http://www.w3.org/2000/svg">
<path fill-rule="evenodd" clip-rule="evenodd" d="M71.818 0H89.9998C102.05 0 111.818 9.75821 111.818 21.7959V39.9592C111.818 40.9226 111.435 41.8466 110.753 42.5279C110.071 43.2091 109.146 43.5918 108.182 43.5918H71.818C70.8536 43.5918 69.9287 43.2091 69.2467 42.5279C68.5648 41.8466 68.1816 40.9226 68.1816 39.9592V3.63265C68.1816 2.66921 68.5648 1.74523 69.2467 1.06398C69.9287 0.382725 70.8536 0 71.818 0Z" fill="#0F0F11"/>
<path fill-rule="evenodd" clip-rule="evenodd" d="M89.9998 0C102.05 0 111.818 9.75821 111.818 21.7959V39.9592C111.818 40.9226 111.435 41.8466 110.753 42.5279C110.071 43.2091 109.146 43.5918 108.182 43.5918H94.5453L94.5426 43.2849C94.4544 38.0275 92.0935 34.3812 87.7998 32.4596L111.818 21.7959L111.237 21.5979C106.04 19.7834 101.688 17.1252 98.1816 13.6224C94.6753 10.1197 92.0144 5.77229 90.198 0.580316L89.9998 0L75.4544 32.6939C75.4544 33.9045 75.7571 34.8126 76.3635 35.4184C76.9698 36.0241 77.8789 36.3265 79.0907 36.3265L79.4307 36.3283C86.2862 36.401 89.0907 38.6805 89.0907 43.5918H71.818C70.8536 43.5918 69.9287 43.2091 69.2467 42.5279C68.5648 41.8466 68.1816 40.9226 68.1816 39.9592V3.63265C68.1816 2.66921 68.5648 1.74523 69.2467 1.06398C69.9287 0.382725 70.8536 0 71.818 0L89.9998 0ZM103.103 8.70565C101.683 7.2871 99.9571 6.71223 99.2471 7.42151C98.5371 8.12988 99.1125 9.85539 100.533 11.2739C101.953 12.6925 103.679 13.2674 104.389 12.5581C105.099 11.8497 104.523 10.1242 103.103 8.70565Z" fill="white"/>
<path fill-rule="evenodd" clip-rule="evenodd" d="M3.23636 87.7287C1.66636 86.8832 0.587273 85.6553 0 84.0452L1.72273 82.9018C2.14364 84.314 2.99818 85.372 4.28636 86.0785C5.57545 86.7842 7.15818 87.1375 9.03545 87.1375C10.9409 87.1375 12.4327 86.7706 13.5109 86.0359C14.59 85.3021 15.1291 84.3285 15.1291 83.1134C15.1291 82.069 14.6664 81.2353 13.7418 80.6141C12.8173 79.9929 11.1927 79.4708 8.86727 79.0475C5.92545 78.5108 3.85273 77.7907 2.64727 76.887C1.44273 75.9834 0.840909 74.6984 0.840909 73.0328C0.840909 71.9312 1.17727 70.9149 1.84909 69.9832C2.52182 69.0514 3.47364 68.3176 4.70636 67.7809C5.93909 67.2442 7.34 66.9762 8.90909 66.9762C11.1227 66.9762 12.8945 67.3994 14.2255 68.2468C15.5564 69.0941 16.4736 70.3928 16.9782 72.1428L15.1709 73.2026C14.3864 70.2919 12.2991 68.8389 8.90909 68.8389C7.78818 68.8389 6.77273 69.0223 5.86273 69.3892C4.95182 69.7561 4.23727 70.2429 3.71909 70.8514C3.20091 71.458 2.94182 72.1137 2.94182 72.8203C2.94182 73.9782 3.41818 74.8818 4.37091 75.5311C5.32273 76.1805 7.00455 76.7172 9.41364 77.1404C12.2709 77.6208 14.2882 78.3119 15.4655 79.2156C16.6418 80.1192 17.23 81.3897 17.23 83.028C17.23 84.8353 16.4664 86.282 14.9391 87.3691C13.4136 88.4561 11.3618 89.0001 8.78364 89.0001C6.65455 89.0001 4.80545 88.5769 3.23636 87.7287ZM37.5991 78.8768H20.9155C21.0555 81.4742 21.8191 83.5012 23.2064 84.9551C24.5927 86.4091 26.4482 87.1366 28.7736 87.1366C30.4273 87.1366 31.8491 86.7978 33.0391 86.1194C34.23 85.4419 35.0918 84.482 35.6236 83.2405L37.3891 84.1714C36.6045 85.7244 35.4836 86.9177 34.0273 87.7505C32.57 88.5833 30.8182 89.0001 28.7727 89.0001C25.6636 89.0001 23.2327 88.0256 21.4818 86.0776C19.7309 84.1287 18.8545 81.4324 18.8545 77.9877C18.8545 74.5422 19.7027 71.8458 21.3973 69.8978C23.0927 67.9489 25.4673 66.9753 28.5209 66.9753C31.3782 66.9753 33.62 67.9353 35.2445 69.8551C36.87 71.775 37.6818 74.3169 37.6818 77.4792C37.6818 77.9596 37.6545 78.4255 37.5982 78.8777L37.5991 78.8768ZM23.1427 70.9776C21.8255 72.4034 21.0836 74.4014 20.9155 76.9715H35.7082C35.5682 74.4295 34.8745 72.4398 33.6273 70.9985C32.3818 69.5591 30.6791 68.8389 28.5218 68.8389C26.2527 68.8389 24.4591 69.5518 23.1427 70.9776ZM42.5873 87.7932C40.9618 86.9885 39.7709 85.7952 39.0145 84.2141L41.7464 82.3079C42.2227 83.5502 43.0491 84.482 44.2255 85.1032C45.4027 85.7244 46.7891 86.035 48.3864 86.035C50.0391 86.035 51.3 85.7389 52.1682 85.145C53.0373 84.5528 53.4709 83.8045 53.4709 82.9009C53.4709 82.0817 53.0655 81.4251 52.2527 80.9311C51.44 80.437 50.0109 80.0066 47.9664 79.6397C45.9482 79.2728 44.3518 78.8278 43.1755 78.3047C41.9982 77.7825 41.1436 77.1195 40.6118 76.3149C40.0791 75.5093 39.8136 74.514 39.8136 73.3279C39.8136 72.1709 40.15 71.112 40.8218 70.1521C41.4945 69.1913 42.4609 68.422 43.7218 67.8435C44.9827 67.2641 46.4391 66.9753 48.0918 66.9753C50.3336 66.9753 52.1336 67.3913 53.4918 68.2241C54.8509 69.0578 55.8245 70.3355 56.4127 72.0574L53.5555 73.752C53.1073 72.3962 52.4282 71.4226 51.5173 70.8296C50.6064 70.2365 49.4645 69.9396 48.0918 69.9396C46.7191 69.9396 45.5564 70.2502 44.6036 70.8714C43.6518 71.4925 43.1755 72.2127 43.1755 73.0319C43.1755 73.9636 43.5882 74.6838 44.4145 75.1924C45.2418 75.701 46.7191 76.1378 48.8482 76.5047C51.7627 76.9851 53.8209 77.7053 55.0264 78.6652C56.2309 79.6251 56.8336 80.981 56.8336 82.7311C56.8336 83.9453 56.4764 85.026 55.7609 85.9714C55.0473 86.9177 54.0245 87.6588 52.6936 88.1955C51.3627 88.7313 49.8155 89.0001 48.05 89.0001C46.0327 89.0001 44.2118 88.5978 42.5864 87.7922L42.5873 87.7932ZM61.7791 87.7932C60.1536 86.9885 58.9636 85.7952 58.2064 84.2141L60.9382 82.3079C61.4145 83.5502 62.2409 84.482 63.4182 85.1032C64.5946 85.7244 65.9818 86.035 67.5782 86.035C69.2318 86.035 70.4918 85.7389 71.36 85.145C72.2291 84.5528 72.6636 83.8045 72.6636 82.9009C72.6636 82.0817 72.2573 81.4251 71.4454 80.9311C70.6318 80.437 69.2036 80.0066 67.1582 79.6397C65.1409 79.2728 63.5445 78.8278 62.3673 78.3047C61.1909 77.7825 60.3364 77.1195 59.8036 76.3149C59.2718 75.5093 59.0055 74.514 59.0055 73.3279C59.0055 72.1709 59.3418 71.112 60.0145 70.1521C60.6864 69.1913 61.6527 68.422 62.9145 67.8435C64.1745 67.2641 65.6309 66.9753 67.2845 66.9753C69.5255 66.9753 71.3255 67.3913 72.6845 68.2241C74.0436 69.0578 75.0173 70.3355 75.6055 72.0574L72.7473 73.752C72.2991 72.3962 71.62 71.4226 70.7091 70.8296C69.7991 70.2365 68.6573 69.9396 67.2845 69.9396C65.9118 69.9396 64.7482 70.2502 63.7964 70.8714C62.8436 71.4925 62.3673 72.2127 62.3673 73.0319C62.3673 73.9636 62.7809 74.6838 63.6073 75.1924C64.4336 75.701 65.9118 76.1378 68.0409 76.5047C70.9546 76.9851 73.0136 77.7053 74.2182 78.6652C75.4227 79.6251 76.0255 80.981 76.0255 82.7311C76.0255 83.9453 75.6682 85.026 74.9536 85.9714C74.2391 86.9177 73.2173 87.6588 71.8864 88.1955C70.5555 88.7313 69.0073 89.0001 67.2418 89.0001C65.2255 89.0001 63.4036 88.5987 61.7791 87.7932ZM78.9118 63.1002C78.38 62.6053 78.1136 61.906 78.1136 61.0023C78.1136 60.0987 78.38 59.4076 78.9118 58.9272C79.4445 58.4477 80.1864 58.207 81.1391 58.207C82.0918 58.207 82.8273 58.4477 83.3455 58.9272C83.8636 59.4076 84.1227 60.0987 84.1227 61.0023C84.1227 61.906 83.8636 62.6053 83.3455 63.1002C82.8273 63.5933 82.0918 63.8404 81.1391 63.8404C80.1864 63.8404 79.4445 63.5942 78.9118 63.1002ZM83.3664 88.5769H78.87V67.3985H83.3664V88.5769ZM104.366 69.8978C106.215 71.8458 107.139 74.5422 107.139 77.9877C107.139 81.4324 106.215 84.1287 104.366 86.0776C102.516 88.0256 99.9536 89.0001 96.6755 89.0001C93.3973 89.0001 90.8336 88.0256 88.9846 86.0776C87.1355 84.1287 86.2118 81.4324 86.2118 77.9877C86.2118 74.5422 87.1355 71.8458 88.9846 69.8978C90.8336 67.9489 93.3973 66.9753 96.6755 66.9753C99.9536 66.9753 102.516 67.9489 104.366 69.8978ZM92.2845 72.4597C91.2609 73.7448 90.75 75.5874 90.75 77.9877C90.75 80.388 91.2609 82.2298 92.2836 83.5148C93.3064 84.7999 94.77 85.4419 96.6746 85.4419C98.5809 85.4419 100.051 84.7926 101.088 83.4939C102.125 82.1952 102.643 80.3598 102.643 77.9877C102.643 75.6156 102.125 73.7802 101.088 72.4815C100.052 71.1829 98.5809 70.5326 96.6755 70.5326C94.77 70.5326 93.3064 71.1756 92.2845 72.4597ZM127.487 68.966C128.875 70.2929 129.567 72.1991 129.567 74.6838V88.5769H123.81V76.3785C123.81 73.159 122.564 71.5498 120.07 71.5498C118.725 71.5498 117.584 72.0293 116.645 72.9892C115.706 73.95 115.236 75.4176 115.236 77.3938V88.5769H109.48V67.3985H114.649L114.817 71.1674C115.517 69.7843 116.484 68.7399 117.717 68.0343C118.949 67.3277 120.378 66.9753 122.003 66.9753C124.273 66.9753 126.101 67.6383 127.487 68.966ZM131.865 61.2566C131.865 59.1679 133.056 58.1226 135.438 58.1226C137.82 58.1226 139.011 59.1669 139.011 61.2566C139.011 63.3182 137.82 64.3489 135.438 64.3489C133.056 64.3489 131.865 63.3182 131.865 61.2566ZM138.295 88.5769H132.538V67.3985H138.295V88.5769ZM139.922 84.1723L148.243 74.5994L150.512 72.3544L147.15 72.4388H139.964V67.3985H158.413V71.8031L150.134 81.2916L147.865 83.6211L151.563 83.5366H158.79V88.5769H139.922V84.1723ZM179.79 80.0629H165.459C165.684 81.3897 166.167 82.3642 166.909 82.9853C167.652 83.6065 168.639 83.9171 169.873 83.9171C170.909 83.9171 171.756 83.72 172.415 83.3241C173.073 82.929 173.515 82.3505 173.738 81.5877L179.538 83.4512C178.949 85.2585 177.807 86.6353 176.113 87.5816C174.417 88.527 172.337 89.0001 169.872 89.0001C166.202 89.0001 163.394 88.0402 161.446 86.1203C159.499 84.1996 158.525 81.4887 158.525 77.9877C158.525 74.4858 159.478 71.7759 161.383 69.8551C163.288 67.9353 165.992 66.9753 169.494 66.9753C172.885 66.9753 175.483 67.9135 177.289 69.7915C179.096 71.6696 180 74.3024 180 77.6908C180 78.6507 179.93 79.4417 179.79 80.0629ZM165.417 76.1669H173.317C172.982 73.3988 171.693 72.0156 169.452 72.0156C167.183 72.0156 165.837 73.3988 165.417 76.1659V76.1669Z" fill="white"/>
</svg>
