<svg width="180" height="39" viewBox="0 0 180 39" fill="none" xmlns="http://www.w3.org/2000/svg">
<g clip-path="url(#clip0_3153_2103)">
<path d="M130.28 30.1325H130.547V27.5654H131.908V34.7293H130.576V34.2517H130.31C130.044 34.6099 129.6 34.8487 128.889 34.8487C127.558 34.8487 126.759 33.7144 126.759 32.1921C126.759 30.6699 127.558 29.5355 128.889 29.5355C129.629 29.5355 130.014 29.7744 130.28 30.1325ZM130.576 32.1921C130.576 31.3862 130.192 30.6697 129.363 30.6697C128.534 30.6697 128.15 31.3265 128.15 32.1921C128.15 33.028 128.534 33.7144 129.363 33.7144C130.221 33.7144 130.576 32.9981 130.576 32.1921Z" fill="white"/>
<path d="M137.56 32.3713H133.949C133.979 33.237 134.393 33.7444 135.163 33.7444C135.695 33.7444 135.962 33.5654 136.11 33.2071H137.5C137.293 34.222 136.524 34.8787 135.163 34.8787C133.564 34.8787 132.588 33.8042 132.588 32.1922C132.588 30.5803 133.564 29.5654 135.133 29.5654C136.672 29.5654 137.53 30.5803 137.56 31.9833V32.3713ZM134.008 31.4459H136.169C136.08 30.9385 135.754 30.5803 135.133 30.5803C134.482 30.5803 134.156 30.9385 134.008 31.4459Z" fill="white"/>
<path d="M139.632 27.5654H138.271V34.7293H139.632V27.5654Z" fill="white"/>
<path d="M145.817 27.6846C147.415 27.6846 148.331 28.5205 148.331 29.9234C148.331 31.3561 147.415 32.192 145.817 32.192H144.1V34.7292H142.649V27.6846H145.817ZM145.61 30.9084C146.497 30.9084 146.853 30.5502 146.853 29.9531C146.853 29.3263 146.526 28.998 145.61 28.998H144.071V30.9383H145.61V30.9084Z" fill="white"/>
<path d="M153.333 32.3713H149.723C149.753 33.237 150.168 33.7444 150.937 33.7444C151.469 33.7444 151.735 33.5654 151.884 33.2071H153.274C153.068 34.222 152.297 34.8787 150.937 34.8787C149.338 34.8787 148.361 33.8042 148.361 32.1922C148.361 30.5803 149.338 29.5654 150.907 29.5654C152.446 29.5654 153.304 30.5803 153.333 31.9833V32.3713ZM149.783 31.4459H151.943C151.855 30.9385 151.528 30.5803 150.907 30.5803C150.256 30.5803 149.93 30.9385 149.783 31.4459Z" fill="white"/>
<path d="M157.417 30.9384H156.914C155.85 30.9384 155.376 31.4756 155.376 32.4905V34.6995H154.014V29.625H155.346V30.1922H155.612C155.76 29.9534 156.145 29.625 156.974 29.625H157.447V30.9384H157.417Z" fill="white"/>
<path d="M159.253 29.655V32.5205C159.253 33.2369 159.607 33.6249 160.229 33.6249C160.909 33.6249 161.353 33.028 161.353 32.3414V29.655H162.715V34.7293H161.383V34.2517H161.117C160.82 34.6398 160.348 34.8487 159.725 34.8487C158.453 34.8487 157.861 34.0727 157.861 32.7593V29.655H159.253ZM160.82 28.9983H159.607L160.496 27.5654H161.945L160.82 28.9983Z" fill="white"/>
<path d="M132.292 19.2967H130.132V25.0577H128.682V19.2967H126.521V18.0132H132.292V19.2967Z" fill="white"/>
<path d="M136.524 22.67H132.943C132.973 23.5358 133.387 24.0432 134.156 24.0432C134.659 24.0432 134.955 23.8641 135.103 23.5059H136.494C136.287 24.5208 135.518 25.1775 134.156 25.1775C132.558 25.1775 131.611 24.1028 131.611 22.491C131.611 20.8792 132.588 19.8643 134.127 19.8643C135.636 19.8643 136.524 20.8792 136.554 22.2821V22.67H136.524ZM132.973 21.7747H135.133C135.044 21.2672 134.719 20.9089 134.097 20.9089C133.446 20.9089 133.121 21.2373 132.973 21.7747Z" fill="white"/>
<path d="M141.911 23.3566C141.793 24.461 140.875 25.1775 139.602 25.1775C138.063 25.1775 137.087 24.1327 137.087 22.5209C137.087 20.9388 138.063 19.8643 139.602 19.8643C140.875 19.8643 141.733 20.5806 141.852 21.5955H140.49C140.372 21.2074 140.105 20.9985 139.602 20.9985C138.744 20.9985 138.419 21.685 138.419 22.491C138.419 23.3267 138.744 24.0133 139.602 24.0133C140.135 24.0133 140.461 23.7447 140.549 23.3267H141.911V23.3566Z" fill="white"/>
<path d="M146.082 25.0581V22.1925C146.082 21.4761 145.728 21.0881 145.107 21.0881C144.425 21.0881 143.982 21.685 143.982 22.3716V25.0581H142.62V19.9836H143.953V20.4612H144.218C144.515 20.0732 144.987 19.8643 145.61 19.8643C146.882 19.8643 147.474 20.6402 147.474 21.9537V25.0581H146.082Z" fill="white"/>
<path d="M153.333 22.5209C153.333 24.1028 152.327 25.1775 150.73 25.1775C149.161 25.1775 148.125 24.1028 148.125 22.5209C148.125 20.9388 149.132 19.8643 150.73 19.8643C152.327 19.8643 153.333 20.9388 153.333 22.5209ZM151.973 22.5209C151.973 21.7149 151.587 21.0283 150.73 21.0283C149.871 21.0283 149.486 21.7149 149.486 22.5209C149.486 23.3267 149.871 24.0432 150.73 24.0432C151.587 24.0432 151.973 23.3267 151.973 22.5209Z" fill="white"/>
<path d="M155.405 17.894H154.043V25.0581H155.405V17.894Z" fill="white"/>
<path d="M161.324 22.5208C161.324 24.1028 160.317 25.1775 158.72 25.1775C157.151 25.1775 156.115 24.1028 156.115 22.5208C156.115 20.9387 157.122 19.8642 158.72 19.8642C160.317 19.8642 161.324 20.9387 161.324 22.5208ZM159.963 22.5208C159.963 21.7148 159.578 21.0284 158.72 21.0284C157.861 21.0284 157.476 21.7148 157.476 22.5208C157.476 23.3268 157.861 24.0432 158.72 24.0432C159.578 24.0432 159.963 23.3268 159.963 22.5208ZM159.282 19.3269H158.069L158.956 17.894H160.407L159.282 19.3269Z" fill="white"/>
<path d="M166.887 19.9836V24.7896C166.887 26.2222 165.851 27.1177 164.372 27.1177C162.981 27.1177 162.064 26.5208 161.945 25.4164H163.307C163.366 25.8342 163.72 26.0432 164.343 26.0432C165.2 26.0432 165.527 25.4461 165.527 24.67V24.3716H165.259C165.023 24.6999 164.668 24.9387 163.958 24.9387C162.626 24.9387 161.768 23.894 161.768 22.4014C161.768 20.909 162.626 19.8345 163.958 19.8345C164.668 19.8345 165.112 20.1329 165.318 20.4314H165.586V19.9539H166.887V19.9836ZM165.556 22.4313C165.556 21.6552 165.141 21.0284 164.312 21.0284C163.543 21.0284 163.099 21.6255 163.099 22.4313C163.099 23.2373 163.543 23.8343 164.312 23.8343C165.141 23.8343 165.556 23.1776 165.556 22.4313Z" fill="white"/>
<path d="M167.953 17.894H169.343V19.118H167.953V17.894ZM169.314 25.0581H167.953V19.9836H169.314V25.0581Z" fill="white"/>
<path d="M174.848 23.3566C174.73 24.461 173.812 25.1775 172.54 25.1775C171.001 25.1775 169.994 24.1327 169.994 22.5209C169.994 20.9388 170.971 19.8643 172.54 19.8643C173.812 19.8643 174.671 20.5806 174.789 21.5955H173.427C173.309 21.2074 173.043 20.9985 172.54 20.9985C171.681 20.9985 171.356 21.685 171.356 22.491C171.356 23.3267 171.681 24.0133 172.54 24.0133C173.073 24.0133 173.397 23.7447 173.487 23.3267H174.848V23.3566Z" fill="white"/>
<path d="M178.696 24.6102H178.429C178.133 24.9684 177.689 25.1774 177.009 25.1774C175.884 25.1774 175.233 24.4013 175.233 23.5058C175.233 22.7297 175.796 21.8342 177.275 21.8342H178.607V21.7148C178.607 21.2073 178.311 20.9387 177.719 20.9387C177.186 20.9387 176.92 21.1477 176.86 21.476H175.499C175.529 20.491 176.417 19.894 177.63 19.894C178.991 19.894 179.909 20.4312 179.909 21.8043V25.0879H178.637V24.6102H178.696ZM178.637 23.0282V22.6998H177.571C176.979 22.6998 176.624 22.9088 176.624 23.3864C176.624 23.864 176.95 24.073 177.512 24.073C178.163 24.073 178.637 23.6551 178.637 23.0282Z" fill="white"/>
<path d="M132.648 8.28248V12.7301C132.648 14.4613 131.612 15.4464 129.718 15.4464C127.853 15.4464 126.788 14.4613 126.788 12.7301V8.28248H128.238V12.7002C128.238 13.5659 128.771 14.1331 129.718 14.1331C130.665 14.1331 131.197 13.5659 131.197 12.7002V8.28248H132.648ZM137.028 15.327V12.4614C137.028 11.745 136.672 11.357 136.051 11.357C135.37 11.357 134.926 11.954 134.926 12.6405V15.327H133.565V10.2526H134.897V10.7302H135.163C135.459 10.3421 135.932 10.1332 136.554 10.1332C137.827 10.1332 138.418 10.9092 138.418 12.2226V15.327H137.028ZM139.277 8.16309H140.668V9.38692H139.277V8.16309ZM140.668 15.327H139.306V10.2526H140.668V15.327ZM141.348 10.2526H142.74L143.774 14.0733H144.189L145.196 10.2526H146.586L145.137 15.327H142.769L141.348 10.2526ZM151.706 12.939H148.096C148.125 13.8047 148.54 14.3121 149.309 14.3121C149.842 14.3121 150.107 14.1331 150.256 13.7748H151.647C151.44 14.7898 150.67 15.4464 149.309 15.4464C147.711 15.4464 146.735 14.3718 146.735 12.7599C146.735 11.1481 147.711 10.1332 149.279 10.1332C150.819 10.1332 151.676 11.1481 151.706 12.5211V12.939ZM148.155 12.0435H150.315C150.227 11.5361 149.901 11.1779 149.279 11.1779C148.599 11.1779 148.273 11.5361 148.155 12.0435ZM155.879 11.5361H155.376C154.311 11.5361 153.837 12.0734 153.837 13.0883V15.2972H152.476V10.2227H153.807V10.7899H154.073C154.222 10.5511 154.635 10.2227 155.435 10.2227H155.909V11.5361H155.879ZM159.342 11.6555C159.283 11.2973 158.957 11.2078 158.542 11.2078C158.129 11.2078 157.802 11.3271 157.802 11.6555C157.802 11.9241 158.009 12.0137 158.335 12.0734L159.253 12.2226C160.199 12.3719 160.85 12.8196 160.85 13.8345C160.85 14.6702 160.111 15.4762 158.63 15.4762C157.093 15.4762 156.381 14.8195 156.263 13.745H157.625C157.684 14.1927 158.039 14.4017 158.63 14.4017C159.193 14.4017 159.489 14.2226 159.489 13.8644C159.489 13.5062 159.253 13.3868 158.779 13.2972L157.802 13.148C157.004 12.9987 156.442 12.6107 156.442 11.745C156.442 10.8794 157.093 10.163 158.571 10.163C159.845 10.163 160.584 10.76 160.702 11.6853H159.342V11.6555ZM161.561 8.16309H162.952V9.38692H161.561V8.16309ZM162.922 15.327H161.561V10.2526H162.922V15.327ZM167.124 10.7302H167.391V8.16309H168.752V15.327H167.421V14.8793H167.153C166.888 15.2375 166.444 15.4762 165.734 15.4762C164.402 15.4762 163.603 14.342 163.603 12.8196C163.603 11.2973 164.402 10.163 165.734 10.163C166.473 10.1332 166.858 10.372 167.124 10.7302ZM167.45 12.7898C167.45 11.9839 167.065 11.2973 166.237 11.2973C165.407 11.2973 165.024 11.954 165.024 12.7898C165.024 13.6256 165.407 14.3121 166.237 14.3121C167.065 14.3121 167.45 13.5957 167.45 12.7898ZM172.896 14.8793H172.629C172.334 15.2375 171.889 15.4464 171.209 15.4464C170.084 15.4464 169.432 14.6704 169.432 13.7748C169.432 12.9987 169.994 12.1032 171.475 12.1032H172.806V11.9839C172.806 11.4764 172.511 11.2078 171.919 11.2078C171.386 11.2078 171.119 11.4167 171.06 11.745H169.699C169.729 10.76 170.617 10.163 171.83 10.163C173.191 10.163 174.109 10.7003 174.109 12.0734V15.3569H172.835V14.8793H172.896ZM172.835 13.2972V12.9689H171.771C171.178 12.9689 170.824 13.1778 170.824 13.6554C170.824 14.1032 171.149 14.342 171.711 14.342C172.393 14.3718 172.835 13.924 172.835 13.2972ZM178.37 10.7302H178.637V8.16309H179.998V15.327H178.667V14.8793H178.399C178.134 15.2375 177.69 15.4762 176.98 15.4762C175.647 15.4762 174.848 14.342 174.848 12.8196C174.848 11.2973 175.647 10.163 176.98 10.163C177.69 10.1332 178.104 10.372 178.37 10.7302ZM178.667 12.7898C178.667 11.9839 178.281 11.2973 177.453 11.2973C176.624 11.2973 176.239 11.954 176.239 12.7898C176.239 13.6256 176.624 14.3121 177.453 14.3121C178.281 14.3121 178.667 13.5957 178.667 12.7898Z" fill="white"/>
<path d="M39.7559 0V39H78.4223V0H39.7559ZM69.8286 13.8748H62.4266V30.3333H55.7516V13.8748H48.3388V8.68021H69.8286V13.8748Z" fill="white"/>
<path d="M94.7451 13.875V19.2348H101.993L102.901 18.3194V14.7931L101.993 13.875H94.7451Z" fill="white"/>
<path d="M79.5 0V39H118.166V0H79.5ZM109.567 20.7621L105.627 24.4292H94.7444V30.3333H88.0775V8.68021H105.627L109.567 12.3473V20.7621Z" fill="white"/>
<path d="M0 0V39H38.6664V0H0ZM30.0889 26.3792L25.8488 30.3333H12.842L8.59915 26.3548V8.68021H15.2661V24.2152L16.1741 25.1333H22.514L23.4247 24.2152V8.68021H30.0889V26.3792Z" fill="white"/>
</g>
<defs>
<clipPath id="clip0_3153_2103">
<rect width="180" height="39" fill="white"/>
</clipPath>
</defs>
</svg>
